<mxfile host="app.diagrams.net" modified="2024-02-01T09:01:59.007Z" agent="Mozilla/5.0 (Macintosh; Intel Mac OS X 10_15_7) AppleWebKit/605.1.15 (KHTML, like Gecko) Version/17.2.1 Safari/605.1.15" etag="EmhLAKwjp4m-wKwySPOo" version="23.1.0" type="github">
  <diagram name="Page-1" id="YzuRRwNtvJoP5tr-6kcn">
    <mxGraphModel dx="984" dy="667" grid="1" gridSize="10" guides="1" tooltips="1" connect="1" arrows="1" fold="1" page="1" pageScale="1" pageWidth="827" pageHeight="1169" math="0" shadow="0">
      <root>
        <mxCell id="0" />
        <mxCell id="1" parent="0" />
        <mxCell id="udvCFMWbTleHwRw01EId-1" value="" style="verticalLabelPosition=bottom;shadow=0;dashed=0;align=center;html=1;verticalAlign=top;shape=mxgraph.electrical.abstract.dac;" vertex="1" parent="1">
          <mxGeometry x="120" y="280" width="70" height="46" as="geometry" />
        </mxCell>
      </root>
    </mxGraphModel>
  </diagram>
</mxfile>
